<svg width="35" height="45" viewBox="0 0 35 45" fill="none" xmlns="http://www.w3.org/2000/svg">
<g clip-path="url(#clip0_4_2)">
<path d="M4.375 31.875C4.375 32.9105 5.21447 33.75 6.25 33.75H28.75C29.7855 33.75 30.625 32.9105 30.625 31.875C30.625 30.8395 29.7855 30 28.75 30H6.25C5.21447 30 4.375 30.8395 4.375 31.875ZM4.375 22.5C4.375 23.5355 5.21447 24.375 6.25 24.375H28.75C29.7855 24.375 30.625 23.5355 30.625 22.5C30.625 21.4645 29.7855 20.625 28.75 20.625H6.25C5.21447 20.625 4.375 21.4645 4.375 22.5ZM6.25 11.25C5.21447 11.25 4.375 12.0895 4.375 13.125C4.375 14.1605 5.21447 15 6.25 15H28.75C29.7855 15 30.625 14.1605 30.625 13.125C30.625 12.0895 29.7855 11.25 28.75 11.25H6.25Z" fill="white"/>
</g>
<defs>
<clipPath id="clip0_4_2">
<rect width="35" height="45" rx="17.5" fill="white"/>
</clipPath>
</defs>
</svg>
