<svg width="35" height="35" viewBox="0 0 35 35" fill="none" xmlns="http://www.w3.org/2000/svg">
<path fill-rule="evenodd" clip-rule="evenodd" d="M17.4996 0C12.2954 0 8.07666 3.9175 8.07666 8.75C8.07666 13.5825 12.2954 17.5 17.4996 17.5C22.7038 17.5 26.9225 13.5825 26.9225 8.75C26.9225 3.9175 22.7038 0 17.4996 0ZM10.7689 8.75C10.7689 5.29875 13.7829 2.5 17.4996 2.5C21.2163 2.5 24.2303 5.29875 24.2303 8.75C24.2303 12.2012 21.2163 15 17.4996 15C13.7829 15 10.7689 12.2012 10.7689 8.75Z" fill="white"/>
<path fill-rule="evenodd" clip-rule="evenodd" d="M6.19787 20C4.42097 20 2.63598 20.8263 1.77446 22.44C1.06908 23.76 0.206219 25.7225 0.0177603 27.7525C-0.120891 29.255 0.552163 30.8025 2.04099 31.6625C4.39807 33.0213 9.25493 35 17.5 35C25.7451 35 30.6019 33.0213 32.959 31.6625C34.4478 30.8025 35.1209 29.255 34.9822 27.7525C34.7938 25.7225 33.9309 23.76 33.2255 22.44C32.364 20.8263 30.579 20 28.8021 20H6.19787ZM4.18672 23.55C4.52325 22.9188 5.27576 22.5 6.19787 22.5H28.8021C29.7242 22.5 30.4768 22.9188 30.8133 23.55C31.4594 24.76 32.154 26.3937 32.2994 27.9662C32.364 28.665 32.0503 29.2425 31.5388 29.5387C29.6179 30.6462 25.2551 32.5 17.5 32.5C9.74492 32.5 5.38212 30.6462 3.46119 29.5387C2.94966 29.2425 2.63601 28.665 2.70062 27.9662C2.846 26.3937 3.54057 24.76 4.18672 23.55Z" fill="white"/>
</svg>
