<svg width="35" height="35" viewBox="0 0 35 35" fill="none" xmlns="http://www.w3.org/2000/svg">
<g clip-path="url(#clip0_5_28)">
<path d="M29.1677 12.6656V5.83333H22.3354L17.501 0.998955L12.6667 5.83333H5.83438V12.6656L1 17.5L5.83438 22.3344V29.1667H12.6667L17.501 34.001L22.3354 29.1667H29.1677V22.3344L34.0021 17.5L29.1677 12.6656ZM17.501 26.25C12.6667 26.25 8.75104 22.3344 8.75104 17.5C8.75104 12.6656 12.6667 8.75 17.501 8.75C22.3354 8.75 26.251 12.6656 26.251 17.5C26.251 22.3344 22.3354 26.25 17.501 26.25ZM17.501 11.6667C14.2781 11.6667 11.6677 14.2771 11.6677 17.5C11.6677 20.7229 14.2781 23.3333 17.501 23.3333C20.724 23.3333 23.3344 20.7229 23.3344 17.5C23.3344 14.2771 20.724 11.6667 17.501 11.6667Z" fill="white"/>
</g>
<defs>
<clipPath id="clip0_5_28">
<rect width="35" height="35" fill="white"/>
</clipPath>
</defs>
</svg>
